<mxfile host="app.diagrams.net">
  <diagram name="Access and Permission Reviews for Sensitive Data" id="0">
    <mxGraphModel dx="1200" dy="720" grid="1" gridSize="10" guides="1" tooltips="1" connect="1" arrows="1" fold="1" page="1" pageScale="1" pageWidth="850" pageHeight="1100" math="0" shadow="0">
      <root>
        <mxCell id="0"/>
        <mxCell id="1" parent="0"/>

        <!-- Swimlanes -->
        <mxCell id="2" value="Security/Compliance Team" style="swimlane" vertex="1" parent="1">
          <mxGeometry x="0" y="0" width="280" height="1100" as="geometry"/>
        </mxCell>
        <mxCell id="3" value="Microsoft Purview &amp; Connected Systems" style="swimlane" vertex="1" parent="1">
          <mxGeometry x="280" y="0" width="280" height="1100" as="geometry"/>
        </mxCell>
        <mxCell id="4" value="Data Owners / Managers" style="swimlane" vertex="1" parent="1">
          <mxGeometry x="560" y="0" width="280" height="1100" as="geometry"/>
        </mxCell>

        <!-- Start -->
        <mxCell id="5" value="" style="ellipse;whiteSpace=wrap;html=1;aspect=fixed;fillColor=#000000;" vertex="1" parent="2">
          <mxGeometry x="120" y="20" width="30" height="30" as="geometry"/>
        </mxCell>

        <!-- Activities -->
        <mxCell id="6" value="Schedule or Trigger Access Review Cycle" style="rounded=1;whiteSpace=wrap;html=1;" vertex="1" parent="2">
          <mxGeometry x="40" y="70" width="200" height="60" as="geometry"/>
        </mxCell>

        <mxCell id="7" value="Scan Sensitive Data Locations (Teams, Box, Email, Local)" style="rounded=1;whiteSpace=wrap;html=1;" vertex="1" parent="3">
          <mxGeometry x="40" y="70" width="200" height="60" as="geometry"/>
        </mxCell>

        <mxCell id="8" value="Enumerate Users/Groups with Access to Sensitive Files" style="rounded=1;whiteSpace=wrap;html=1;" vertex="1" parent="3">
          <mxGeometry x="40" y="160" width="200" height="60" as="geometry"/>
        </mxCell>

        <mxCell id="9" value="Generate Access Review Report for Reviewers" style="rounded=1;whiteSpace=wrap;html=1;" vertex="1" parent="3">
          <mxGeometry x="40" y="250" width="200" height="60" as="geometry"/>
        </mxCell>

        <mxCell id="10" value="Review Reported Access Entries" style="rounded=1;whiteSpace=wrap;html=1;" vertex="1" parent="4">
          <mxGeometry x="40" y="250" width="200" height="60" as="geometry"/>
        </mxCell>

        <mxCell id="11" value="Is Access Justified by Business Need?" style="rhombus;whiteSpace=wrap;html=1;" vertex="1" parent="4">
          <mxGeometry x="80" y="340" width="120" height="80" as="geometry"/>
        </mxCell>

        <mxCell id="12" value="Revoke or Modify Access Permissions" style="rounded=1;whiteSpace=wrap;html=1;" vertex="1" parent="3">
          <mxGeometry x="40" y="450" width="200" height="60" as="geometry"/>
        </mxCell>

        <!-- End -->
        <mxCell id="13" value="" style="ellipse;whiteSpace=wrap;html=1;aspect=fixed;fillColor=#000000;" vertex="1" parent="3">
          <mxGeometry x="110" y="540" width="30" height="30" as="geometry"/>
        </mxCell>

        <!-- Connectors -->
        <mxCell id="e1" style="endArrow=none;" edge="1" parent="2" source="5" target="6"><mxGeometry relative="1" as="geometry"/></mxCell>
        <mxCell id="e2" style="endArrow=block;" edge="1" parent="2" source="6" target="7"><mxGeometry relative="1" as="geometry"/></mxCell>
        <mxCell id="e3" style="endArrow=block;" edge="1" parent="3" source="7" target="8"><mxGeometry relative="1" as="geometry"/></mxCell>
        <mxCell id="e4" style="endArrow=block;" edge="1" parent="3" source="8" target="9"><mxGeometry relative="1" as="geometry"/></mxCell>
        <mxCell id="e5" style="endArrow=block;" edge="1" parent="3" source="9" target="10"><mxGeometry relative="1" as="geometry"/></mxCell>
        <mxCell id="e6" style="endArrow=block;" edge="1" parent="4" source="10" target="11"><mxGeometry relative="1" as="geometry"/></mxCell>
        <mxCell id="e7" value="No" style="endArrow=block;" edge="1" parent="4" source="11" target="12"><mxGeometry relative="1" as="geometry"/></mxCell>
        <mxCell id="e8" value="Yes" style="endArrow=block;" edge="1" parent="4" source="11" target="13"><mxGeometry relative="1" as="geometry"/></mxCell>
        <mxCell id="e9" style="endArrow=block;" edge="1" parent="3" source="12" target="13"><mxGeometry relative="1" as="geometry"/></mxCell>
      </root>
    </mxGraphModel>
  </diagram>
</mxfile>